# xmcd CD database file
#
# Track frame offsets:
#	150
#	17327
#	42190
#
# Disc length: 790 seconds
#
# Revision: 0
# Processed by: cddbd v1.5.1PL0 Copyright (c) Steve Scherf et al.
# Submitted via: CDex 1.51
#
DISCID=15031403
DTITLE=THE BLUE HEARTS - 1000のバイオリン
DYEAR=1993
DGENRE=Rock
TTITLE0=1000のバイオリン
TTITLE1=俺は俺の死を死にたい
TTITLE2=1001のバイオリン
EXTD=YEAR: 1993
EXTT0=
EXTT1=
EXTT2=
PLAYORDER=
